<?xml version="1.0" encoding="utf-8"?>
<!-- Generator: Adobe Illustrator 20.1.0, SVG Export Plug-In . SVG Version: 6.00 Build 0)  -->
<svg version="1.1" id="Layer_1" xmlns="http://www.w3.org/2000/svg" xmlns:xlink="http://www.w3.org/1999/xlink" x="0px" y="0px"
	 viewBox="0 0 504 90" enable-background="new 0 0 504 90" xml:space="preserve">
<g>
	<g>
		<path fill="#0092BC" d="M188.2,56.4H165c0,0,0,0,0,0v-8.2h10.4c1.7,0,3.1-1.4,3.1-3.1v-1.5c0-1.7-1.4-3.1-3.1-3.1H165v-6.9l0,0
			h22.3c2.1,0,3.8-1.7,3.8-3.8s-1.7-3.8-3.8-3.8h-26.1c-2.1,0-3.8,1.7-3.8,3.8v30.5c0,2.1,1.7,3.8,3.8,3.8h27c2.1,0,3.8-1.7,3.8-3.8
			v0C192,58.1,190.3,56.4,188.2,56.4z"/>
		<path fill="#0092BC" d="M233.9,25.9h-28.1c-2.1,0-3.8,1.7-3.8,3.8v0c0,2.1,1.7,3.8,3.8,3.8h10.2v26.7c0,2.1,1.7,3.8,3.8,3.8
			s3.8-1.7,3.8-3.8V33.6h10.2c2.1,0,3.8-1.7,3.8-3.8v0C237.8,27.6,236.1,25.9,233.9,25.9z"/>
		<path fill="#0092BC" d="M464,25.9h-16.8c-2.1,0-3.8,1.7-3.8,3.8v30.5c0,2.1,1.7,3.8,3.8,3.8c0.1,0,0.2,0,0.3,0c0.1,0,0.2,0,0.3,0
			H464c11.4,0,19.2-7.1,19.2-19.7C483.3,30.2,472.8,25.9,464,25.9z M464,56.4h-13v-1.9V33.6h13c6,0,11.6,2.3,11.6,11.3
			C475.6,52.6,470.7,56.4,464,56.4z"/>
		<path fill="#0092BC" d="M318.6,25.9h-19c-2.1,0-3.8,1.7-3.8,3.8v30.3c0,2.1,1.6,3.9,3.7,4c2.2,0.1,3.9-1.7,3.9-3.8v-7.2v-2.8h15.2
			c7.9,0,13.7-3.8,13.7-12.3C332.4,29.2,326,25.9,318.6,25.9z M318.6,42.6h-15.2v-2.1v-7h15.2c2.7,0,6.1,0.4,6.1,4.4
			C324.7,42.3,321.6,42.6,318.6,42.6z"/>
		<path fill="#0092BC" d="M140.2,25.7L140.2,25.7c-2.1,0-3.8,1.7-3.8,3.8l0.1,23.4l-20.1-25.1c-1.5-1.8-3.9-2.5-6.1-1.7
			c-2.2,0.8-3.7,2.8-3.7,5.2l0.1,29.4c0,2.1,1.7,3.8,3.8,3.8h0c2.1,0,3.8-1.7,3.8-3.8l0-23.4l20.1,25.1c1.5,1.8,3.9,2.5,6.1,1.7
			c2.2-0.8,3.7-2.8,3.7-5.2L144,29.5C144,27.4,142.3,25.7,140.2,25.7z"/>
		<path fill="#0092BC" d="M426.4,25.7L426.4,25.7c-2.1,0-3.8,1.7-3.8,3.8l0.1,23.4l-20.1-25.1c-1.5-1.8-3.9-2.5-6.1-1.7
			c-2.2,0.8-3.7,2.8-3.7,5.2l0.1,29.4c0,2.1,1.7,3.8,3.8,3.8h0c2.1,0,3.8-1.7,3.8-3.8l0-23.4l20.1,25.1c1.5,1.8,3.9,2.5,6.1,1.7
			c2.2-0.8,3.7-2.8,3.7-5.2l-0.1-29.4C430.2,27.4,428.5,25.7,426.4,25.7z"/>
		<path fill="#0092BC" d="M263.1,40.3c-5.1,0-7-1.2-7.7-1.9c-0.3-0.4-0.7-1-0.7-2.3c0-1.1,0.2-3.9,8.6-3.9c2.4,0,6.3,0.6,9.3,2.2
			c1.8,1,4.1,0.3,5.1-1.5c1-1.8,0.3-4.1-1.5-5.1c-4.3-2.3-9.5-3.1-12.9-3.1c-13.6,0-16,7-16.2,11.1c-0.1,3.1,0.8,5.8,2.8,7.9
			c2.7,2.8,7,4.2,13.2,4.2c7.8,0,10.9,2.3,11.1,4.2c0.2,1.9-0.4,2.7-0.8,3.2c-1.3,1.5-4.4,2.4-7.9,2.4c-6.7,0-10.6-1.7-12.4-2.7
			c-1.8-1-4.1-0.4-5.2,1.4c-1,1.8-0.4,4.1,1.4,5.2c3,1.7,8.2,3.7,16.2,3.7c3.4,0,9.8-0.6,13.6-4.9c2.2-2.4,3.1-5.6,2.7-9.1
			C280.9,44.3,274.1,40.3,263.1,40.3z"/>
		<path fill="#0092BC" d="M375.9,56.4h-23.2c0,0,0,0,0,0v-8.2h10.7c1.7,0,3.1-1.4,3.1-3.1v-1.5c0-1.7-1.4-3.1-3.1-3.1h-10.7v-6.9
			l0,0H375c2.1,0,3.8-1.7,3.8-3.8s-1.7-3.8-3.8-3.8h-26.1c-2.1,0-3.8,1.7-3.8,3.8v30.5c0,2.1,1.7,3.8,3.8,3.8h27
			c2.1,0,3.8-1.7,3.8-3.8v0C379.7,58.1,378,56.4,375.9,56.4z"/>
	</g>
	<path fill="#FF8200" d="M54.3,37.2c-2-1.6-4.1-3.1-6.2-4.7v0c-4.6-3.4-9.3-6.8-14.2-9.6c-8.8-5.2-19.9,1.1-19.9,11.3v0.4v10.6v0.4
		c6.6-9.9,18.4,0,27.9,7.3c2,1.6,4.1,3.1,6.2,4.7v0c4.6,3.4,9.3,6.8,14.2,9.6c8.8,5.2,19.9-1.1,19.9-11.3v-0.4V44.8v-0.4
		C75.6,54.3,63.8,44.4,54.3,37.2z"/>
	<path fill="#FC4C02" d="M42.7,58.4c-3.1-2.4-6.3-4.9-9.6-7.1c-4.7-3-12.1-7.8-16.9-2.2c-1.6,1.9-2.2,4.4-2.2,6.8
		c0,3.2,1,6.4,2.9,8.9c4.1,5.4,12.2,6.8,18,3.3c2.2-1.3,6.6-4.5,10.8-7.4c-0.2-0.1-0.3-0.2-0.5-0.4C44.4,59.7,43.6,59,42.7,58.4z"/>
	<path fill="#FC4C02" d="M53.6,31.6c3.1,2.4,6.3,4.9,9.6,7.1c4.7,3,12.1,7.8,16.9,2.2c1.6-1.9,2.2-4.4,2.2-6.8c0-3.2-1-6.4-2.9-8.9
		c-4.1-5.4-12.2-6.8-18-3.3c-2.2,1.3-6.6,4.5-10.8,7.4c0.2,0.1,0.3,0.2,0.5,0.4C51.9,30.3,52.7,31,53.6,31.6z"/>
	<g>
		<path fill="#0092BC" d="M482.6,62.5l0.1-0.1c0.1-0.1,0.2-0.1,0.3,0c0.1,0.1,0.5,0.3,0.9,0.3c0.4,0,0.7-0.2,0.7-0.6
			c0-0.9-2-0.7-2-2c0-0.7,0.6-1.1,1.3-1.1c0.5,0,0.9,0.2,1,0.3c0.1,0.1,0.1,0.2,0.1,0.3l-0.1,0.1c-0.1,0.1-0.2,0.1-0.3,0.1
			c-0.2-0.1-0.4-0.2-0.8-0.2c-0.4,0-0.7,0.2-0.7,0.6c0,0.9,2,0.6,2,2c0,0.6-0.5,1.2-1.3,1.2c-0.6,0-1-0.3-1.2-0.4
			C482.5,62.7,482.5,62.6,482.6,62.5z"/>
		<path fill="#0092BC" d="M486.1,59.2c0-0.1,0.1-0.2,0.2-0.2h0.3c0.1,0,0.2,0,0.2,0.2l0.9,2.1c0.1,0.2,0.2,0.6,0.2,0.6h0
			c0,0,0.1-0.3,0.2-0.6l0.9-2.1c0-0.1,0.1-0.2,0.2-0.2h0.3c0.1,0,0.2,0.1,0.2,0.2l0.3,3.7c0,0.1-0.1,0.2-0.2,0.2h-0.2
			c-0.1,0-0.2-0.1-0.2-0.2l-0.2-2.4c0-0.3,0-0.6,0-0.6h0c0,0-0.1,0.4-0.2,0.6l-0.8,1.7c0,0.1-0.1,0.2-0.2,0.2h-0.2
			c-0.1,0-0.2,0-0.2-0.2l-0.8-1.7c-0.1-0.2-0.2-0.6-0.2-0.6h0c0,0,0,0.4,0,0.6l-0.2,2.4c0,0.1-0.1,0.2-0.2,0.2H486
			c-0.1,0-0.2-0.1-0.2-0.2L486.1,59.2z"/>
	</g>
</g>
</svg>
